<svg width="20" height="20" viewBox="0 0 20 20" fill="none" xmlns="http://www.w3.org/2000/svg">
<g id="credit-card-refresh">
<path id="Icon" d="M18.3333 8.33333H1.66666M9.16666 15.8333L15.6667 15.8333C16.6001 15.8333 17.0668 15.8333 17.4233 15.6517C17.7369 15.4919 17.9919 15.2369 18.1517 14.9233C18.3333 14.5668 18.3333 14.1001 18.3333 13.1667V6.83333C18.3333 5.89991 18.3333 5.4332 18.1517 5.07668C17.9919 4.76308 17.7369 4.50811 17.4233 4.34832C17.0668 4.16667 16.6001 4.16667 15.6667 4.16667H14.1667M9.16666 15.8333L10.8333 17.5M9.16666 15.8333L10.8333 14.1667M5.83332 15.8333H4.33332C3.3999 15.8333 2.93319 15.8333 2.57667 15.6517C2.26307 15.4919 2.0081 15.2369 1.84831 14.9233C1.66666 14.5668 1.66666 14.1001 1.66666 13.1667V6.83333C1.66666 5.89991 1.66666 5.4332 1.84831 5.07668C2.0081 4.76308 2.26307 4.50811 2.57667 4.34832C2.93319 4.16667 3.3999 4.16667 4.33332 4.16667H10.8333M10.8333 4.16667L9.16666 5.83333M10.8333 4.16667L9.16666 2.5" stroke="#667085" stroke-width="1.5" stroke-linecap="round" stroke-linejoin="round"/>
</g>
</svg>
