<svg width="20" height="20" viewBox="0 0 20 20" fill="none" xmlns="http://www.w3.org/2000/svg">
<g id="file-check-02">
<path id="Icon" d="M16.6667 10.4165V5.6665C16.6667 4.26637 16.6667 3.56631 16.3942 3.03153C16.1545 2.56112 15.7721 2.17867 15.3017 1.93899C14.7669 1.6665 14.0668 1.6665 12.6667 1.6665H7.33334C5.93321 1.6665 5.23315 1.6665 4.69837 1.93899C4.22796 2.17867 3.84551 2.56112 3.60583 3.03153C3.33334 3.56631 3.33334 4.26637 3.33334 5.6665V14.3332C3.33334 15.7333 3.33334 16.4334 3.60583 16.9681C3.84551 17.4386 4.22796 17.821 4.69837 18.0607C5.23315 18.3332 5.93321 18.3332 7.33334 18.3332H10M11.6667 9.1665H6.66668M8.33334 12.4998H6.66668M13.3333 5.83317H6.66668M12.0833 15.8332L13.75 17.4998L17.5 13.7498" stroke="#667085" stroke-width="1.5" stroke-linecap="round" stroke-linejoin="round"/>
</g>
</svg>
