<svg width="20" height="20" viewBox="0 0 20 20" fill="none" xmlns="http://www.w3.org/2000/svg">
<g id="life-buoy-01" clip-path="url(#clip0_11771_1028)">
<path id="Icon" d="M7.61354 7.61341L4.10743 4.1073M4.10743 15.8924L7.63996 12.3599M12.3842 12.3863L15.8903 15.8924M15.8903 4.1073L12.3573 7.64035M18.3333 9.99984C18.3333 14.6022 14.6024 18.3332 9.99999 18.3332C5.39762 18.3332 1.66666 14.6022 1.66666 9.99984C1.66666 5.39746 5.39762 1.6665 9.99999 1.6665C14.6024 1.6665 18.3333 5.39746 18.3333 9.99984ZM13.3333 9.99984C13.3333 11.8408 11.8409 13.3332 9.99999 13.3332C8.15904 13.3332 6.66666 11.8408 6.66666 9.99984C6.66666 8.15889 8.15904 6.6665 9.99999 6.6665C11.8409 6.6665 13.3333 8.15889 13.3333 9.99984Z" stroke="#667085" stroke-width="1.5" stroke-linecap="round" stroke-linejoin="round"/>
</g>
<defs>
<clipPath id="clip0_11771_1028">
<rect width="20" height="20" fill="white"/>
</clipPath>
</defs>
</svg>
