<svg width="20" height="20" viewBox="0 0 20 20" fill="none" xmlns="http://www.w3.org/2000/svg">
<g id="tag-02">
<path id="Icon" d="M6.66666 6.6665H6.67499M3.80228 2.44755L2.44771 3.80212C2.15945 4.09037 2.01533 4.2345 1.91226 4.4027C1.82088 4.55182 1.75353 4.71439 1.71271 4.88445C1.66666 5.07626 1.66666 5.28009 1.66666 5.68774L1.66666 8.06193C1.66666 8.46958 1.66666 8.67341 1.71271 8.86522C1.75353 9.03528 1.82087 9.19786 1.91226 9.34698C2.01533 9.51517 2.15945 9.6593 2.4477 9.94755L8.83823 16.3381C9.82827 17.3281 10.3233 17.8231 10.8941 18.0086C11.3962 18.1718 11.9371 18.1718 12.4392 18.0086C13.01 17.8231 13.505 17.3281 14.4951 16.3381L16.3382 14.4949C17.3283 13.5049 17.8233 13.0099 18.0088 12.439C18.1719 11.9369 18.1719 11.3961 18.0088 10.894C17.8233 10.3231 17.3283 9.82812 16.3382 8.83807L9.9477 2.44755C9.65945 2.1593 9.51532 2.01517 9.34713 1.9121C9.19801 1.82072 9.03544 1.75338 8.86537 1.71255C8.67356 1.6665 8.46974 1.6665 8.06209 1.6665L5.68789 1.6665C5.28024 1.6665 5.07642 1.6665 4.8846 1.71255C4.71454 1.75338 4.55197 1.82072 4.40285 1.9121C4.23465 2.01517 4.09053 2.1593 3.80228 2.44755ZM7.08332 6.6665C7.08332 6.89662 6.89678 7.08317 6.66666 7.08317C6.43654 7.08317 6.24999 6.89662 6.24999 6.6665C6.24999 6.43639 6.43654 6.24984 6.66666 6.24984C6.89678 6.24984 7.08332 6.43639 7.08332 6.6665Z" stroke="#667085" stroke-width="1.5" stroke-linecap="round" stroke-linejoin="round"/>
</g>
</svg>
